<?xml version="1.0" encoding="utf-8"?>
<!-- Generator: Adobe Illustrator 24.0.2, SVG Export Plug-In . SVG Version: 6.00 Build 0)  -->
<svg version="1.1" id="Layer_1" xmlns="http://www.w3.org/2000/svg" xmlns:xlink="http://www.w3.org/1999/xlink" x="0px" y="0px"
	 viewBox="0 0 284 300" style="enable-background:new 0 0 284 300;" xml:space="preserve">
<style type="text/css">
	.st0{fill:#66E594;}
	.st1{fill:#33DD71;}
	.st2{fill:#00D44D;}
	.st3{fill:#FFFFFF;}
</style>
<g>
	<path class="st0" d="M71.9,32c-5.9,0-11.1,2.7-14.5,7H13.1C6.4,39,0.9,44.4,0.9,51.2c0,6.7,5.5,12.2,12.2,12.2h45.2
		c3.4,3.6,8.2,5.8,13.5,5.8c10.3,0,18.6-8.3,18.6-18.6S82.1,32,71.9,32z"/>
	<path class="st1" d="M71.9,130.8c-5.9,0-11.1,2.7-14.5,7H13.1c-6.7,0-12.2,5.5-12.2,12.2c0,6.7,5.5,12.2,12.2,12.2h45.2
		c3.4,3.6,8.2,5.8,13.5,5.8c10.3,0,18.6-8.3,18.6-18.6S82.1,130.8,71.9,130.8z"/>
	<path class="st2" d="M71.9,229.7c-5.9,0-11.1,2.7-14.5,7H13.1c-6.7,0-12.2,5.5-12.2,12.2c0,6.7,5.5,12.2,12.2,12.2h45.2
		c3.4,3.6,8.2,5.8,13.5,5.8c10.3,0,18.6-8.3,18.6-18.6C90.5,238,82.1,229.7,71.9,229.7z"/>
	<path class="st1" d="M260.7,0H51.6C39,0,28.7,10.1,28.3,22.7h26.5c5-3,10.8-4.7,17.1-4.7c18.6,0,33.7,15.1,33.7,33.7
		c0,18.6-15.1,33.7-33.7,33.7c-6.2,0-12.1-1.7-17.1-4.7H28.3v39.5h26.5c5-3,10.8-4.7,17.1-4.7c18.6,0,33.7,15.1,33.7,33.7
		c0,18.6-15.1,33.7-33.7,33.7c-6.2,0-12.1-1.7-17.1-4.7H28.3v41.9h26.5c5-3,10.8-4.7,17.1-4.7c18.6,0,33.7,15.1,33.7,33.7
		c0,18.6-15.1,33.7-33.7,33.7c-6.2,0-12.1-1.7-17.1-4.7H28.4c0.9,12,11,21.5,23.3,21.5h209.1c12.9,0,23.4-10.5,23.4-23.4V23.4
		C284.1,10.5,273.6,0,260.7,0z"/>
	<rect x="128.8" y="28.5" class="st3" width="139.5" height="245.3"/>
	<path class="st3" d="M215.2,292.4h-34.3c-3,0-5.5-2.5-5.5-5.5v-1.8c0-3,2.5-5.5,5.5-5.5h34.3c3,0,5.5,2.5,5.5,5.5v1.8
		C220.7,290,218.2,292.4,215.2,292.4z"/>
	<path class="st3" d="M210.2,15.7h-24.4c-1.3,0-2.3-1-2.3-2.3v-1.2c0-1.3,1-2.3,2.3-2.3h24.4c1.3,0,2.3,1,2.3,2.3v1.2
		C212.6,14.7,211.5,15.7,210.2,15.7z"/>
	<circle class="st3" cx="256.7" cy="13.4" r="7"/>
</g>
</svg>
